Taken 1080p BluRay.mkv
**********************

TiTLE......  Taken
YEAR.......  2008
GENRE......  Action | Crime | Drama | Thriller
iMDB RATE..  User Rating: 7.9/10 (100,860 votes)
iMDB URL...  http://www.imdb.com/title/tt0936501/
Awards 2009: 1 win & 2 nominations
**********************************

Video
Duration                         : 1h 33mn
Bit rate                         : 5 442 Kbps
Width                            : 1 920 pixels
Height                           : 816 pixels
Display aspect ratio             : 2.35:1
Frame rate                       : 25.000 fps
Resolution                       : 24 bits
Colorimetry                      : 4:2:0
Stream size                      : 3.47 GiB (76%)

Audio
ID                               : 2
Format                           : DTS
Format/Info                      : Digital Theater Systems
Bit rate                         : 1 510 Kbps
Channel(s)                       : 6 channels
Channel positions                : Front: L C R, Surround: L R, LFE
Sampling rate                    : 48.0 KHz
Resolution                       : 24 bits
Stream size                      : 1 013 MiB (22%)
Language                         : English

Subtitles: English, Dutch, Finnish, Norwegian
*********************************************

